%
M48
M72
T01C0.01378
T02C0.03150
T03C0.03200
T04C0.03600
T05C0.03937
T06C0.04000
T07C0.04331
T08C0.04400
T09C0.04700
T10C0.06300
%
T01
X293527Y230634
X315968Y231028
X230928Y345201
X175023Y345201
T02
X36716Y346106
X37109Y265004
X93645Y197602
X93645Y177917
X93645Y158232
X93645Y118862
X93645Y99177
X93645Y79492
X211755Y79492
X211755Y99177
X211755Y118862
X211755Y138547
X211755Y158232
X211755Y177917
X211755Y197602
X380023Y132563
X380023Y113665
X408369Y113665
X408369Y132563
X409275Y81303
X409275Y62406
X380928Y62406
X380928Y81303
X307779Y47760
X297779Y47760
T03
X323369Y58508
X333369Y58508
X343369Y58508
X353369Y58508
X353369Y88508
X343369Y88508
X333369Y88508
X323369Y88508
X323369Y100476
X333369Y109295
X343369Y118114
X353369Y127327
X323369Y127327
X313369Y118114
X303369Y109295
X293369Y100476
X272936Y108232
X272936Y78232
X379432Y92327
X379275Y101421
X409275Y101421
X409432Y92327
X426794Y74098
X436794Y74098
X451598Y73390
X461598Y73390
X462228Y94138
X432228Y94138
X431834Y124138
X461834Y124138
X426952Y174138
X426952Y204138
X421913Y214787
X426913Y222287
X416913Y222287
X367700Y284689
X367700Y294689
X356125Y306224
X356204Y317681
X386204Y317681
X386125Y306224
X411086Y336185
X433920Y337091
X433920Y347091
X426637Y361106
X426637Y371106
X411086Y366185
X433920Y324059
X433920Y314059
X312661Y253705
X312779Y241972
X301873Y267287
X301873Y277287
X282661Y253705
X282779Y241972
X278960Y203508
X268448Y203587
X268448Y173587
X278960Y173508
T04
X278566Y216854
X268566Y216854
X288566Y216854
X282897Y271815
X282897Y281815
X282897Y291815
X386834Y291028
X386834Y281028
X386834Y271028
X417779Y158587
X427779Y158587
X437779Y158587
X428606Y146618
X418606Y146618
T05
X421401Y264217
X445417Y264217
X433606Y283114
T06
X456480Y321028
X456480Y331028
X456480Y341028
X333409Y321106
X333409Y311106
X333409Y301106
X334472Y262799
X334472Y252799
X334472Y242799
X215889Y316067
X195889Y316067
X457228Y173980
X457228Y163980
X457228Y153980
X379235Y40437
X369235Y40437
X359235Y40437
X349235Y40437
X339235Y40437
X329235Y40437
X329393Y22091
X339393Y22091
X349393Y22091
X319393Y22091
X295220Y26303
X285220Y26303
X275220Y26303
X265220Y26303
T07
X132857Y273429
X140731Y297051
X132857Y320673
X84826Y320673
X84826Y273429
T08
X115377Y340634
X155377Y340634
X264196Y281224
X264196Y241224
X403094Y281185
X422346Y297563
X403094Y321185
X462346Y297563
T09
X27700Y80831
X27700Y100516
X27700Y120201
X27700Y139886
X27700Y159571
X27700Y179256
X458054Y203035
X458054Y222720
T10
X235338Y266185
X215338Y266185
X195338Y266185
X175338Y266185
M30
