G75*
%MOIN*%
%OFA0B0*%
%FSLAX25Y25*%
%IPPOS*%
%LPD*%
%AMOC8*
5,1,8,0,0,1.08239X$1,22.5*
%
%ADD10C,0.00500*%
%ADD11R,0.03000X0.42000*%
%ADD12R,0.02000X0.07500*%
%ADD13R,0.02000X0.03000*%
%ADD14C,0.00600*%
%ADD15C,0.02000*%
%ADD16R,0.05000X0.07500*%
%ADD17R,0.03000X0.07000*%
%ADD18R,0.05000X0.03000*%
D10*
X0403230Y0243624D02*
X0403308Y0243868D01*
X0403393Y0244110D01*
X0403483Y0244349D01*
X0403579Y0244587D01*
X0403681Y0244822D01*
X0403789Y0245055D01*
X0403902Y0245285D01*
X0404021Y0245512D01*
X0404145Y0245736D01*
X0404275Y0245957D01*
X0404410Y0246174D01*
X0404551Y0246389D01*
X0404697Y0246600D01*
X0404847Y0246807D01*
X0405003Y0247010D01*
X0405164Y0247210D01*
X0405329Y0247406D01*
X0405499Y0247597D01*
X0405674Y0247785D01*
X0405854Y0247968D01*
X0406037Y0248146D01*
X0406226Y0248321D01*
X0406418Y0248490D01*
X0406614Y0248655D01*
X0406815Y0248815D01*
X0407019Y0248969D01*
X0407227Y0249119D01*
X0407438Y0249264D01*
X0407653Y0249404D01*
X0407871Y0249538D01*
X0408093Y0249667D01*
X0408317Y0249790D01*
X0408545Y0249908D01*
X0408775Y0250021D01*
X0409008Y0250127D01*
X0409244Y0250228D01*
X0409482Y0250324D01*
X0409722Y0250413D01*
X0409964Y0250496D01*
X0410209Y0250574D01*
X0410455Y0250645D01*
X0410703Y0250711D01*
X0410952Y0250770D01*
X0411202Y0250824D01*
X0411454Y0250871D01*
X0411707Y0250912D01*
X0411961Y0250947D01*
X0412216Y0250976D01*
X0412471Y0250998D01*
X0412727Y0251014D01*
X0412983Y0251024D01*
X0413239Y0251028D01*
X0413496Y0251025D01*
X0413752Y0251017D01*
X0414008Y0251002D01*
X0414263Y0250980D01*
X0414263Y0249400D01*
X0419763Y0248774D02*
X0419763Y0232281D01*
X0414263Y0231655D02*
X0414263Y0230075D01*
X0414263Y0239400D02*
X0414263Y0241655D01*
X0419763Y0248774D02*
X0419564Y0248927D01*
X0419362Y0249075D01*
X0419157Y0249218D01*
X0418948Y0249356D01*
X0418736Y0249489D01*
X0418521Y0249617D01*
X0418303Y0249739D01*
X0418082Y0249857D01*
X0417858Y0249969D01*
X0417632Y0250076D01*
X0417403Y0250177D01*
X0417172Y0250273D01*
X0416938Y0250364D01*
X0416703Y0250449D01*
X0416465Y0250528D01*
X0416226Y0250601D01*
X0415985Y0250669D01*
X0415743Y0250731D01*
X0415499Y0250787D01*
X0415253Y0250838D01*
X0415007Y0250882D01*
X0414760Y0250921D01*
X0414512Y0250953D01*
X0414263Y0250980D01*
X0403230Y0237432D02*
X0403308Y0237190D01*
X0403392Y0236950D01*
X0403481Y0236712D01*
X0403576Y0236476D01*
X0403678Y0236242D01*
X0403784Y0236011D01*
X0403897Y0235783D01*
X0404014Y0235557D01*
X0404137Y0235334D01*
X0404266Y0235115D01*
X0404400Y0234898D01*
X0404539Y0234685D01*
X0404683Y0234475D01*
X0404832Y0234269D01*
X0404986Y0234067D01*
X0405145Y0233868D01*
X0405309Y0233673D01*
X0405478Y0233482D01*
X0405651Y0233296D01*
X0405828Y0233113D01*
X0406010Y0232935D01*
X0406196Y0232762D01*
X0406387Y0232593D01*
X0406581Y0232429D01*
X0406779Y0232269D01*
X0406981Y0232114D01*
X0407187Y0231965D01*
X0407396Y0231820D01*
X0407609Y0231680D01*
X0407825Y0231546D01*
X0408045Y0231417D01*
X0408267Y0231293D01*
X0408492Y0231174D01*
X0408720Y0231062D01*
X0408951Y0230954D01*
X0409184Y0230853D01*
X0409420Y0230757D01*
X0409658Y0230666D01*
X0409898Y0230582D01*
X0410140Y0230503D01*
X0410384Y0230430D01*
X0410630Y0230364D01*
X0410877Y0230303D01*
X0411125Y0230248D01*
X0411375Y0230199D01*
X0411626Y0230156D01*
X0411878Y0230120D01*
X0412130Y0230089D01*
X0412384Y0230065D01*
X0412637Y0230047D01*
X0412892Y0230035D01*
X0413146Y0230029D01*
X0413401Y0230029D01*
X0413655Y0230035D01*
X0413909Y0230048D01*
X0414163Y0230067D01*
X0414416Y0230092D01*
X0414669Y0230123D01*
X0414921Y0230160D01*
X0415171Y0230203D01*
X0415421Y0230252D01*
X0415670Y0230308D01*
X0415917Y0230369D01*
X0416162Y0230436D01*
X0416406Y0230509D01*
X0416648Y0230588D01*
X0416887Y0230673D01*
X0417125Y0230764D01*
X0417361Y0230861D01*
X0417594Y0230963D01*
X0417824Y0231071D01*
X0418052Y0231184D01*
X0418277Y0231303D01*
X0418499Y0231427D01*
X0418718Y0231557D01*
X0418934Y0231691D01*
X0419147Y0231831D01*
X0419356Y0231977D01*
X0419561Y0232127D01*
X0419763Y0232282D01*
X0459271Y0312406D02*
X0470771Y0311906D01*
X0459671Y0314206D02*
X0459673Y0314269D01*
X0459679Y0314331D01*
X0459689Y0314393D01*
X0459702Y0314455D01*
X0459720Y0314515D01*
X0459741Y0314574D01*
X0459766Y0314632D01*
X0459795Y0314688D01*
X0459827Y0314742D01*
X0459862Y0314794D01*
X0459900Y0314843D01*
X0459942Y0314891D01*
X0459986Y0314935D01*
X0460034Y0314977D01*
X0460083Y0315015D01*
X0460135Y0315050D01*
X0460189Y0315082D01*
X0460245Y0315111D01*
X0460303Y0315136D01*
X0460362Y0315157D01*
X0460422Y0315175D01*
X0460484Y0315188D01*
X0460546Y0315198D01*
X0460608Y0315204D01*
X0460671Y0315206D01*
X0460734Y0315204D01*
X0460796Y0315198D01*
X0460858Y0315188D01*
X0460920Y0315175D01*
X0460980Y0315157D01*
X0461039Y0315136D01*
X0461097Y0315111D01*
X0461153Y0315082D01*
X0461207Y0315050D01*
X0461259Y0315015D01*
X0461308Y0314977D01*
X0461356Y0314935D01*
X0461400Y0314891D01*
X0461442Y0314843D01*
X0461480Y0314794D01*
X0461515Y0314742D01*
X0461547Y0314688D01*
X0461576Y0314632D01*
X0461601Y0314574D01*
X0461622Y0314515D01*
X0461640Y0314455D01*
X0461653Y0314393D01*
X0461663Y0314331D01*
X0461669Y0314269D01*
X0461671Y0314206D01*
X0461669Y0314143D01*
X0461663Y0314081D01*
X0461653Y0314019D01*
X0461640Y0313957D01*
X0461622Y0313897D01*
X0461601Y0313838D01*
X0461576Y0313780D01*
X0461547Y0313724D01*
X0461515Y0313670D01*
X0461480Y0313618D01*
X0461442Y0313569D01*
X0461400Y0313521D01*
X0461356Y0313477D01*
X0461308Y0313435D01*
X0461259Y0313397D01*
X0461207Y0313362D01*
X0461153Y0313330D01*
X0461097Y0313301D01*
X0461039Y0313276D01*
X0460980Y0313255D01*
X0460920Y0313237D01*
X0460858Y0313224D01*
X0460796Y0313214D01*
X0460734Y0313208D01*
X0460671Y0313206D01*
X0460608Y0313208D01*
X0460546Y0313214D01*
X0460484Y0313224D01*
X0460422Y0313237D01*
X0460362Y0313255D01*
X0460303Y0313276D01*
X0460245Y0313301D01*
X0460189Y0313330D01*
X0460135Y0313362D01*
X0460083Y0313397D01*
X0460034Y0313435D01*
X0459986Y0313477D01*
X0459942Y0313521D01*
X0459900Y0313569D01*
X0459862Y0313618D01*
X0459827Y0313670D01*
X0459795Y0313724D01*
X0459766Y0313780D01*
X0459741Y0313838D01*
X0459720Y0313897D01*
X0459702Y0313957D01*
X0459689Y0314019D01*
X0459679Y0314081D01*
X0459673Y0314143D01*
X0459671Y0314206D01*
X0458271Y0313406D02*
X0459271Y0312406D01*
X0458271Y0313406D02*
X0458271Y0350406D01*
X0459271Y0351406D01*
X0470771Y0351906D01*
D11*
X0473771Y0331906D03*
D12*
X0471271Y0349156D03*
X0471271Y0314656D03*
D13*
X0471271Y0326906D03*
X0471271Y0336906D03*
D14*
X0028991Y0071909D02*
X0019991Y0071909D01*
X0019991Y0190008D01*
X0028991Y0190008D01*
X0028991Y0183709D01*
X0028991Y0190008D02*
X0056192Y0190008D01*
X0056192Y0130909D01*
X0056192Y0071909D01*
X0028991Y0071909D01*
X0028991Y0078209D01*
X0028991Y0085209D02*
X0028991Y0097909D01*
X0028991Y0104909D02*
X0028991Y0117610D01*
X0028991Y0124610D02*
X0028991Y0130909D01*
X0028991Y0137307D01*
X0028991Y0130909D02*
X0056192Y0130909D01*
X0048191Y0140809D02*
X0048193Y0140898D01*
X0048199Y0140987D01*
X0048209Y0141076D01*
X0048223Y0141164D01*
X0048240Y0141251D01*
X0048262Y0141337D01*
X0048288Y0141423D01*
X0048317Y0141507D01*
X0048350Y0141590D01*
X0048386Y0141671D01*
X0048427Y0141751D01*
X0048470Y0141828D01*
X0048517Y0141904D01*
X0048568Y0141977D01*
X0048621Y0142048D01*
X0048678Y0142117D01*
X0048738Y0142183D01*
X0048801Y0142247D01*
X0048866Y0142307D01*
X0048934Y0142365D01*
X0049005Y0142419D01*
X0049078Y0142470D01*
X0049153Y0142518D01*
X0049230Y0142563D01*
X0049309Y0142604D01*
X0049390Y0142641D01*
X0049472Y0142675D01*
X0049556Y0142706D01*
X0049641Y0142732D01*
X0049727Y0142755D01*
X0049814Y0142773D01*
X0049902Y0142788D01*
X0049991Y0142799D01*
X0050080Y0142806D01*
X0050169Y0142809D01*
X0050258Y0142808D01*
X0050347Y0142803D01*
X0050435Y0142794D01*
X0050524Y0142781D01*
X0050611Y0142764D01*
X0050698Y0142744D01*
X0050784Y0142719D01*
X0050868Y0142691D01*
X0050951Y0142659D01*
X0051033Y0142623D01*
X0051113Y0142584D01*
X0051191Y0142541D01*
X0051267Y0142495D01*
X0051341Y0142445D01*
X0051413Y0142392D01*
X0051482Y0142336D01*
X0051549Y0142277D01*
X0051613Y0142215D01*
X0051674Y0142151D01*
X0051733Y0142083D01*
X0051788Y0142013D01*
X0051840Y0141941D01*
X0051889Y0141866D01*
X0051934Y0141790D01*
X0051976Y0141711D01*
X0052014Y0141631D01*
X0052049Y0141549D01*
X0052080Y0141465D01*
X0052108Y0141380D01*
X0052131Y0141294D01*
X0052151Y0141207D01*
X0052167Y0141120D01*
X0052179Y0141031D01*
X0052187Y0140943D01*
X0052191Y0140854D01*
X0052191Y0140764D01*
X0052187Y0140675D01*
X0052179Y0140587D01*
X0052167Y0140498D01*
X0052151Y0140411D01*
X0052131Y0140324D01*
X0052108Y0140238D01*
X0052080Y0140153D01*
X0052049Y0140069D01*
X0052014Y0139987D01*
X0051976Y0139907D01*
X0051934Y0139828D01*
X0051889Y0139752D01*
X0051840Y0139677D01*
X0051788Y0139605D01*
X0051733Y0139535D01*
X0051674Y0139467D01*
X0051613Y0139403D01*
X0051549Y0139341D01*
X0051482Y0139282D01*
X0051413Y0139226D01*
X0051341Y0139173D01*
X0051267Y0139123D01*
X0051191Y0139077D01*
X0051113Y0139034D01*
X0051033Y0138995D01*
X0050951Y0138959D01*
X0050868Y0138927D01*
X0050784Y0138899D01*
X0050698Y0138874D01*
X0050611Y0138854D01*
X0050524Y0138837D01*
X0050435Y0138824D01*
X0050347Y0138815D01*
X0050258Y0138810D01*
X0050169Y0138809D01*
X0050080Y0138812D01*
X0049991Y0138819D01*
X0049902Y0138830D01*
X0049814Y0138845D01*
X0049727Y0138863D01*
X0049641Y0138886D01*
X0049556Y0138912D01*
X0049472Y0138943D01*
X0049390Y0138977D01*
X0049309Y0139014D01*
X0049230Y0139055D01*
X0049153Y0139100D01*
X0049078Y0139148D01*
X0049005Y0139199D01*
X0048934Y0139253D01*
X0048866Y0139311D01*
X0048801Y0139371D01*
X0048738Y0139435D01*
X0048678Y0139501D01*
X0048621Y0139570D01*
X0048568Y0139641D01*
X0048517Y0139714D01*
X0048470Y0139790D01*
X0048427Y0139867D01*
X0048386Y0139947D01*
X0048350Y0140028D01*
X0048317Y0140111D01*
X0048288Y0140195D01*
X0048262Y0140281D01*
X0048240Y0140367D01*
X0048223Y0140454D01*
X0048209Y0140542D01*
X0048199Y0140631D01*
X0048193Y0140720D01*
X0048191Y0140809D01*
X0028991Y0144307D02*
X0028991Y0157008D01*
X0028991Y0164008D02*
X0028991Y0176709D01*
X0048191Y0180109D02*
X0048193Y0180198D01*
X0048199Y0180287D01*
X0048209Y0180376D01*
X0048223Y0180464D01*
X0048240Y0180551D01*
X0048262Y0180637D01*
X0048288Y0180723D01*
X0048317Y0180807D01*
X0048350Y0180890D01*
X0048386Y0180971D01*
X0048427Y0181051D01*
X0048470Y0181128D01*
X0048517Y0181204D01*
X0048568Y0181277D01*
X0048621Y0181348D01*
X0048678Y0181417D01*
X0048738Y0181483D01*
X0048801Y0181547D01*
X0048866Y0181607D01*
X0048934Y0181665D01*
X0049005Y0181719D01*
X0049078Y0181770D01*
X0049153Y0181818D01*
X0049230Y0181863D01*
X0049309Y0181904D01*
X0049390Y0181941D01*
X0049472Y0181975D01*
X0049556Y0182006D01*
X0049641Y0182032D01*
X0049727Y0182055D01*
X0049814Y0182073D01*
X0049902Y0182088D01*
X0049991Y0182099D01*
X0050080Y0182106D01*
X0050169Y0182109D01*
X0050258Y0182108D01*
X0050347Y0182103D01*
X0050435Y0182094D01*
X0050524Y0182081D01*
X0050611Y0182064D01*
X0050698Y0182044D01*
X0050784Y0182019D01*
X0050868Y0181991D01*
X0050951Y0181959D01*
X0051033Y0181923D01*
X0051113Y0181884D01*
X0051191Y0181841D01*
X0051267Y0181795D01*
X0051341Y0181745D01*
X0051413Y0181692D01*
X0051482Y0181636D01*
X0051549Y0181577D01*
X0051613Y0181515D01*
X0051674Y0181451D01*
X0051733Y0181383D01*
X0051788Y0181313D01*
X0051840Y0181241D01*
X0051889Y0181166D01*
X0051934Y0181090D01*
X0051976Y0181011D01*
X0052014Y0180931D01*
X0052049Y0180849D01*
X0052080Y0180765D01*
X0052108Y0180680D01*
X0052131Y0180594D01*
X0052151Y0180507D01*
X0052167Y0180420D01*
X0052179Y0180331D01*
X0052187Y0180243D01*
X0052191Y0180154D01*
X0052191Y0180064D01*
X0052187Y0179975D01*
X0052179Y0179887D01*
X0052167Y0179798D01*
X0052151Y0179711D01*
X0052131Y0179624D01*
X0052108Y0179538D01*
X0052080Y0179453D01*
X0052049Y0179369D01*
X0052014Y0179287D01*
X0051976Y0179207D01*
X0051934Y0179128D01*
X0051889Y0179052D01*
X0051840Y0178977D01*
X0051788Y0178905D01*
X0051733Y0178835D01*
X0051674Y0178767D01*
X0051613Y0178703D01*
X0051549Y0178641D01*
X0051482Y0178582D01*
X0051413Y0178526D01*
X0051341Y0178473D01*
X0051267Y0178423D01*
X0051191Y0178377D01*
X0051113Y0178334D01*
X0051033Y0178295D01*
X0050951Y0178259D01*
X0050868Y0178227D01*
X0050784Y0178199D01*
X0050698Y0178174D01*
X0050611Y0178154D01*
X0050524Y0178137D01*
X0050435Y0178124D01*
X0050347Y0178115D01*
X0050258Y0178110D01*
X0050169Y0178109D01*
X0050080Y0178112D01*
X0049991Y0178119D01*
X0049902Y0178130D01*
X0049814Y0178145D01*
X0049727Y0178163D01*
X0049641Y0178186D01*
X0049556Y0178212D01*
X0049472Y0178243D01*
X0049390Y0178277D01*
X0049309Y0178314D01*
X0049230Y0178355D01*
X0049153Y0178400D01*
X0049078Y0178448D01*
X0049005Y0178499D01*
X0048934Y0178553D01*
X0048866Y0178611D01*
X0048801Y0178671D01*
X0048738Y0178735D01*
X0048678Y0178801D01*
X0048621Y0178870D01*
X0048568Y0178941D01*
X0048517Y0179014D01*
X0048470Y0179090D01*
X0048427Y0179167D01*
X0048386Y0179247D01*
X0048350Y0179328D01*
X0048317Y0179411D01*
X0048288Y0179495D01*
X0048262Y0179581D01*
X0048240Y0179667D01*
X0048223Y0179754D01*
X0048209Y0179842D01*
X0048199Y0179931D01*
X0048193Y0180020D01*
X0048191Y0180109D01*
X0048191Y0160409D02*
X0048193Y0160498D01*
X0048199Y0160587D01*
X0048209Y0160676D01*
X0048223Y0160764D01*
X0048240Y0160851D01*
X0048262Y0160937D01*
X0048288Y0161023D01*
X0048317Y0161107D01*
X0048350Y0161190D01*
X0048386Y0161271D01*
X0048427Y0161351D01*
X0048470Y0161428D01*
X0048517Y0161504D01*
X0048568Y0161577D01*
X0048621Y0161648D01*
X0048678Y0161717D01*
X0048738Y0161783D01*
X0048801Y0161847D01*
X0048866Y0161907D01*
X0048934Y0161965D01*
X0049005Y0162019D01*
X0049078Y0162070D01*
X0049153Y0162118D01*
X0049230Y0162163D01*
X0049309Y0162204D01*
X0049390Y0162241D01*
X0049472Y0162275D01*
X0049556Y0162306D01*
X0049641Y0162332D01*
X0049727Y0162355D01*
X0049814Y0162373D01*
X0049902Y0162388D01*
X0049991Y0162399D01*
X0050080Y0162406D01*
X0050169Y0162409D01*
X0050258Y0162408D01*
X0050347Y0162403D01*
X0050435Y0162394D01*
X0050524Y0162381D01*
X0050611Y0162364D01*
X0050698Y0162344D01*
X0050784Y0162319D01*
X0050868Y0162291D01*
X0050951Y0162259D01*
X0051033Y0162223D01*
X0051113Y0162184D01*
X0051191Y0162141D01*
X0051267Y0162095D01*
X0051341Y0162045D01*
X0051413Y0161992D01*
X0051482Y0161936D01*
X0051549Y0161877D01*
X0051613Y0161815D01*
X0051674Y0161751D01*
X0051733Y0161683D01*
X0051788Y0161613D01*
X0051840Y0161541D01*
X0051889Y0161466D01*
X0051934Y0161390D01*
X0051976Y0161311D01*
X0052014Y0161231D01*
X0052049Y0161149D01*
X0052080Y0161065D01*
X0052108Y0160980D01*
X0052131Y0160894D01*
X0052151Y0160807D01*
X0052167Y0160720D01*
X0052179Y0160631D01*
X0052187Y0160543D01*
X0052191Y0160454D01*
X0052191Y0160364D01*
X0052187Y0160275D01*
X0052179Y0160187D01*
X0052167Y0160098D01*
X0052151Y0160011D01*
X0052131Y0159924D01*
X0052108Y0159838D01*
X0052080Y0159753D01*
X0052049Y0159669D01*
X0052014Y0159587D01*
X0051976Y0159507D01*
X0051934Y0159428D01*
X0051889Y0159352D01*
X0051840Y0159277D01*
X0051788Y0159205D01*
X0051733Y0159135D01*
X0051674Y0159067D01*
X0051613Y0159003D01*
X0051549Y0158941D01*
X0051482Y0158882D01*
X0051413Y0158826D01*
X0051341Y0158773D01*
X0051267Y0158723D01*
X0051191Y0158677D01*
X0051113Y0158634D01*
X0051033Y0158595D01*
X0050951Y0158559D01*
X0050868Y0158527D01*
X0050784Y0158499D01*
X0050698Y0158474D01*
X0050611Y0158454D01*
X0050524Y0158437D01*
X0050435Y0158424D01*
X0050347Y0158415D01*
X0050258Y0158410D01*
X0050169Y0158409D01*
X0050080Y0158412D01*
X0049991Y0158419D01*
X0049902Y0158430D01*
X0049814Y0158445D01*
X0049727Y0158463D01*
X0049641Y0158486D01*
X0049556Y0158512D01*
X0049472Y0158543D01*
X0049390Y0158577D01*
X0049309Y0158614D01*
X0049230Y0158655D01*
X0049153Y0158700D01*
X0049078Y0158748D01*
X0049005Y0158799D01*
X0048934Y0158853D01*
X0048866Y0158911D01*
X0048801Y0158971D01*
X0048738Y0159035D01*
X0048678Y0159101D01*
X0048621Y0159170D01*
X0048568Y0159241D01*
X0048517Y0159314D01*
X0048470Y0159390D01*
X0048427Y0159467D01*
X0048386Y0159547D01*
X0048350Y0159628D01*
X0048317Y0159711D01*
X0048288Y0159795D01*
X0048262Y0159881D01*
X0048240Y0159967D01*
X0048223Y0160054D01*
X0048209Y0160142D01*
X0048199Y0160231D01*
X0048193Y0160320D01*
X0048191Y0160409D01*
X0048191Y0121109D02*
X0048193Y0121198D01*
X0048199Y0121287D01*
X0048209Y0121376D01*
X0048223Y0121464D01*
X0048240Y0121551D01*
X0048262Y0121637D01*
X0048288Y0121723D01*
X0048317Y0121807D01*
X0048350Y0121890D01*
X0048386Y0121971D01*
X0048427Y0122051D01*
X0048470Y0122128D01*
X0048517Y0122204D01*
X0048568Y0122277D01*
X0048621Y0122348D01*
X0048678Y0122417D01*
X0048738Y0122483D01*
X0048801Y0122547D01*
X0048866Y0122607D01*
X0048934Y0122665D01*
X0049005Y0122719D01*
X0049078Y0122770D01*
X0049153Y0122818D01*
X0049230Y0122863D01*
X0049309Y0122904D01*
X0049390Y0122941D01*
X0049472Y0122975D01*
X0049556Y0123006D01*
X0049641Y0123032D01*
X0049727Y0123055D01*
X0049814Y0123073D01*
X0049902Y0123088D01*
X0049991Y0123099D01*
X0050080Y0123106D01*
X0050169Y0123109D01*
X0050258Y0123108D01*
X0050347Y0123103D01*
X0050435Y0123094D01*
X0050524Y0123081D01*
X0050611Y0123064D01*
X0050698Y0123044D01*
X0050784Y0123019D01*
X0050868Y0122991D01*
X0050951Y0122959D01*
X0051033Y0122923D01*
X0051113Y0122884D01*
X0051191Y0122841D01*
X0051267Y0122795D01*
X0051341Y0122745D01*
X0051413Y0122692D01*
X0051482Y0122636D01*
X0051549Y0122577D01*
X0051613Y0122515D01*
X0051674Y0122451D01*
X0051733Y0122383D01*
X0051788Y0122313D01*
X0051840Y0122241D01*
X0051889Y0122166D01*
X0051934Y0122090D01*
X0051976Y0122011D01*
X0052014Y0121931D01*
X0052049Y0121849D01*
X0052080Y0121765D01*
X0052108Y0121680D01*
X0052131Y0121594D01*
X0052151Y0121507D01*
X0052167Y0121420D01*
X0052179Y0121331D01*
X0052187Y0121243D01*
X0052191Y0121154D01*
X0052191Y0121064D01*
X0052187Y0120975D01*
X0052179Y0120887D01*
X0052167Y0120798D01*
X0052151Y0120711D01*
X0052131Y0120624D01*
X0052108Y0120538D01*
X0052080Y0120453D01*
X0052049Y0120369D01*
X0052014Y0120287D01*
X0051976Y0120207D01*
X0051934Y0120128D01*
X0051889Y0120052D01*
X0051840Y0119977D01*
X0051788Y0119905D01*
X0051733Y0119835D01*
X0051674Y0119767D01*
X0051613Y0119703D01*
X0051549Y0119641D01*
X0051482Y0119582D01*
X0051413Y0119526D01*
X0051341Y0119473D01*
X0051267Y0119423D01*
X0051191Y0119377D01*
X0051113Y0119334D01*
X0051033Y0119295D01*
X0050951Y0119259D01*
X0050868Y0119227D01*
X0050784Y0119199D01*
X0050698Y0119174D01*
X0050611Y0119154D01*
X0050524Y0119137D01*
X0050435Y0119124D01*
X0050347Y0119115D01*
X0050258Y0119110D01*
X0050169Y0119109D01*
X0050080Y0119112D01*
X0049991Y0119119D01*
X0049902Y0119130D01*
X0049814Y0119145D01*
X0049727Y0119163D01*
X0049641Y0119186D01*
X0049556Y0119212D01*
X0049472Y0119243D01*
X0049390Y0119277D01*
X0049309Y0119314D01*
X0049230Y0119355D01*
X0049153Y0119400D01*
X0049078Y0119448D01*
X0049005Y0119499D01*
X0048934Y0119553D01*
X0048866Y0119611D01*
X0048801Y0119671D01*
X0048738Y0119735D01*
X0048678Y0119801D01*
X0048621Y0119870D01*
X0048568Y0119941D01*
X0048517Y0120014D01*
X0048470Y0120090D01*
X0048427Y0120167D01*
X0048386Y0120247D01*
X0048350Y0120328D01*
X0048317Y0120411D01*
X0048288Y0120495D01*
X0048262Y0120581D01*
X0048240Y0120667D01*
X0048223Y0120754D01*
X0048209Y0120842D01*
X0048199Y0120931D01*
X0048193Y0121020D01*
X0048191Y0121109D01*
X0048191Y0101409D02*
X0048193Y0101498D01*
X0048199Y0101587D01*
X0048209Y0101676D01*
X0048223Y0101764D01*
X0048240Y0101851D01*
X0048262Y0101937D01*
X0048288Y0102023D01*
X0048317Y0102107D01*
X0048350Y0102190D01*
X0048386Y0102271D01*
X0048427Y0102351D01*
X0048470Y0102428D01*
X0048517Y0102504D01*
X0048568Y0102577D01*
X0048621Y0102648D01*
X0048678Y0102717D01*
X0048738Y0102783D01*
X0048801Y0102847D01*
X0048866Y0102907D01*
X0048934Y0102965D01*
X0049005Y0103019D01*
X0049078Y0103070D01*
X0049153Y0103118D01*
X0049230Y0103163D01*
X0049309Y0103204D01*
X0049390Y0103241D01*
X0049472Y0103275D01*
X0049556Y0103306D01*
X0049641Y0103332D01*
X0049727Y0103355D01*
X0049814Y0103373D01*
X0049902Y0103388D01*
X0049991Y0103399D01*
X0050080Y0103406D01*
X0050169Y0103409D01*
X0050258Y0103408D01*
X0050347Y0103403D01*
X0050435Y0103394D01*
X0050524Y0103381D01*
X0050611Y0103364D01*
X0050698Y0103344D01*
X0050784Y0103319D01*
X0050868Y0103291D01*
X0050951Y0103259D01*
X0051033Y0103223D01*
X0051113Y0103184D01*
X0051191Y0103141D01*
X0051267Y0103095D01*
X0051341Y0103045D01*
X0051413Y0102992D01*
X0051482Y0102936D01*
X0051549Y0102877D01*
X0051613Y0102815D01*
X0051674Y0102751D01*
X0051733Y0102683D01*
X0051788Y0102613D01*
X0051840Y0102541D01*
X0051889Y0102466D01*
X0051934Y0102390D01*
X0051976Y0102311D01*
X0052014Y0102231D01*
X0052049Y0102149D01*
X0052080Y0102065D01*
X0052108Y0101980D01*
X0052131Y0101894D01*
X0052151Y0101807D01*
X0052167Y0101720D01*
X0052179Y0101631D01*
X0052187Y0101543D01*
X0052191Y0101454D01*
X0052191Y0101364D01*
X0052187Y0101275D01*
X0052179Y0101187D01*
X0052167Y0101098D01*
X0052151Y0101011D01*
X0052131Y0100924D01*
X0052108Y0100838D01*
X0052080Y0100753D01*
X0052049Y0100669D01*
X0052014Y0100587D01*
X0051976Y0100507D01*
X0051934Y0100428D01*
X0051889Y0100352D01*
X0051840Y0100277D01*
X0051788Y0100205D01*
X0051733Y0100135D01*
X0051674Y0100067D01*
X0051613Y0100003D01*
X0051549Y0099941D01*
X0051482Y0099882D01*
X0051413Y0099826D01*
X0051341Y0099773D01*
X0051267Y0099723D01*
X0051191Y0099677D01*
X0051113Y0099634D01*
X0051033Y0099595D01*
X0050951Y0099559D01*
X0050868Y0099527D01*
X0050784Y0099499D01*
X0050698Y0099474D01*
X0050611Y0099454D01*
X0050524Y0099437D01*
X0050435Y0099424D01*
X0050347Y0099415D01*
X0050258Y0099410D01*
X0050169Y0099409D01*
X0050080Y0099412D01*
X0049991Y0099419D01*
X0049902Y0099430D01*
X0049814Y0099445D01*
X0049727Y0099463D01*
X0049641Y0099486D01*
X0049556Y0099512D01*
X0049472Y0099543D01*
X0049390Y0099577D01*
X0049309Y0099614D01*
X0049230Y0099655D01*
X0049153Y0099700D01*
X0049078Y0099748D01*
X0049005Y0099799D01*
X0048934Y0099853D01*
X0048866Y0099911D01*
X0048801Y0099971D01*
X0048738Y0100035D01*
X0048678Y0100101D01*
X0048621Y0100170D01*
X0048568Y0100241D01*
X0048517Y0100314D01*
X0048470Y0100390D01*
X0048427Y0100467D01*
X0048386Y0100547D01*
X0048350Y0100628D01*
X0048317Y0100711D01*
X0048288Y0100795D01*
X0048262Y0100881D01*
X0048240Y0100967D01*
X0048223Y0101054D01*
X0048209Y0101142D01*
X0048199Y0101231D01*
X0048193Y0101320D01*
X0048191Y0101409D01*
X0048191Y0081709D02*
X0048193Y0081798D01*
X0048199Y0081887D01*
X0048209Y0081976D01*
X0048223Y0082064D01*
X0048240Y0082151D01*
X0048262Y0082237D01*
X0048288Y0082323D01*
X0048317Y0082407D01*
X0048350Y0082490D01*
X0048386Y0082571D01*
X0048427Y0082651D01*
X0048470Y0082728D01*
X0048517Y0082804D01*
X0048568Y0082877D01*
X0048621Y0082948D01*
X0048678Y0083017D01*
X0048738Y0083083D01*
X0048801Y0083147D01*
X0048866Y0083207D01*
X0048934Y0083265D01*
X0049005Y0083319D01*
X0049078Y0083370D01*
X0049153Y0083418D01*
X0049230Y0083463D01*
X0049309Y0083504D01*
X0049390Y0083541D01*
X0049472Y0083575D01*
X0049556Y0083606D01*
X0049641Y0083632D01*
X0049727Y0083655D01*
X0049814Y0083673D01*
X0049902Y0083688D01*
X0049991Y0083699D01*
X0050080Y0083706D01*
X0050169Y0083709D01*
X0050258Y0083708D01*
X0050347Y0083703D01*
X0050435Y0083694D01*
X0050524Y0083681D01*
X0050611Y0083664D01*
X0050698Y0083644D01*
X0050784Y0083619D01*
X0050868Y0083591D01*
X0050951Y0083559D01*
X0051033Y0083523D01*
X0051113Y0083484D01*
X0051191Y0083441D01*
X0051267Y0083395D01*
X0051341Y0083345D01*
X0051413Y0083292D01*
X0051482Y0083236D01*
X0051549Y0083177D01*
X0051613Y0083115D01*
X0051674Y0083051D01*
X0051733Y0082983D01*
X0051788Y0082913D01*
X0051840Y0082841D01*
X0051889Y0082766D01*
X0051934Y0082690D01*
X0051976Y0082611D01*
X0052014Y0082531D01*
X0052049Y0082449D01*
X0052080Y0082365D01*
X0052108Y0082280D01*
X0052131Y0082194D01*
X0052151Y0082107D01*
X0052167Y0082020D01*
X0052179Y0081931D01*
X0052187Y0081843D01*
X0052191Y0081754D01*
X0052191Y0081664D01*
X0052187Y0081575D01*
X0052179Y0081487D01*
X0052167Y0081398D01*
X0052151Y0081311D01*
X0052131Y0081224D01*
X0052108Y0081138D01*
X0052080Y0081053D01*
X0052049Y0080969D01*
X0052014Y0080887D01*
X0051976Y0080807D01*
X0051934Y0080728D01*
X0051889Y0080652D01*
X0051840Y0080577D01*
X0051788Y0080505D01*
X0051733Y0080435D01*
X0051674Y0080367D01*
X0051613Y0080303D01*
X0051549Y0080241D01*
X0051482Y0080182D01*
X0051413Y0080126D01*
X0051341Y0080073D01*
X0051267Y0080023D01*
X0051191Y0079977D01*
X0051113Y0079934D01*
X0051033Y0079895D01*
X0050951Y0079859D01*
X0050868Y0079827D01*
X0050784Y0079799D01*
X0050698Y0079774D01*
X0050611Y0079754D01*
X0050524Y0079737D01*
X0050435Y0079724D01*
X0050347Y0079715D01*
X0050258Y0079710D01*
X0050169Y0079709D01*
X0050080Y0079712D01*
X0049991Y0079719D01*
X0049902Y0079730D01*
X0049814Y0079745D01*
X0049727Y0079763D01*
X0049641Y0079786D01*
X0049556Y0079812D01*
X0049472Y0079843D01*
X0049390Y0079877D01*
X0049309Y0079914D01*
X0049230Y0079955D01*
X0049153Y0080000D01*
X0049078Y0080048D01*
X0049005Y0080099D01*
X0048934Y0080153D01*
X0048866Y0080211D01*
X0048801Y0080271D01*
X0048738Y0080335D01*
X0048678Y0080401D01*
X0048621Y0080470D01*
X0048568Y0080541D01*
X0048517Y0080614D01*
X0048470Y0080690D01*
X0048427Y0080767D01*
X0048386Y0080847D01*
X0048350Y0080928D01*
X0048317Y0081011D01*
X0048288Y0081095D01*
X0048262Y0081181D01*
X0048240Y0081267D01*
X0048223Y0081354D01*
X0048209Y0081442D01*
X0048199Y0081531D01*
X0048193Y0081620D01*
X0048191Y0081709D01*
X0325952Y0269110D02*
X0337452Y0269110D01*
X0338452Y0270110D01*
X0338452Y0308110D01*
X0337452Y0309110D01*
X0325952Y0309110D01*
X0324389Y0317969D02*
X0335889Y0317969D01*
X0324389Y0317969D02*
X0323389Y0318969D01*
X0323389Y0356969D01*
X0324389Y0357969D01*
X0335889Y0357969D01*
D15*
X0325789Y0319769D03*
X0336052Y0307310D03*
D16*
X0323952Y0306360D03*
X0337889Y0320719D03*
X0337889Y0355219D03*
X0323952Y0271860D03*
D17*
X0322952Y0279110D03*
X0322952Y0289110D03*
X0322952Y0299110D03*
X0338889Y0327969D03*
X0338889Y0337969D03*
X0338889Y0347969D03*
D18*
X0337889Y0342969D03*
X0337889Y0332969D03*
X0323952Y0294110D03*
X0323952Y0284110D03*
M02*
