%
M48
M72
T01C0.01378
T02C0.03150
T03C0.03200
T04C0.03600
T05C0.03937
T06C0.04000
T07C0.04331
T08C0.04400
T09C0.04700
T10C0.06300
%
T01
X269641Y54740
X318460Y79937
X342082Y119307
X351924Y127181
X362161Y134661
X346413Y170882
X335389Y188992
X336570Y229543
X362554Y238598
X360192Y255921
X382239Y285449
X412948Y282693
X368460Y313795
X346806Y357496
X281452Y320094
X248775Y340961
X250350Y363795
X187751Y366551
X148381Y376000
X316098Y279150
X273184Y237811
X263736Y227181
X304287Y229937
X416491Y164583
X433814Y156709
X455861Y158677
X442476Y133480
X403106Y113008
X375153Y81512
X369641Y74031
X408224Y22850
X377909Y20094
X441295Y97260
X321610Y128756
X478696Y288992
T02
X417161Y133441
X417161Y114543
X388814Y114543
X388814Y133441
X391295Y80606
X391295Y61709
X419641Y61709
X419641Y80606
X311058Y52181
X301058Y52181
X220547Y80370
X220547Y100055
X220547Y119740
X220547Y139425
X220547Y159110
X220547Y178795
X220547Y198480
X102436Y198480
X102436Y178795
X102436Y159110
X102436Y119740
X102436Y100055
X102436Y80370
X45901Y265882
X45507Y346984
T03
X267791Y192260
X285389Y191787
X285389Y161787
X267791Y162260
X322161Y118992
X312161Y110173
X302161Y101354
X332161Y101354
X332161Y89386
X342161Y89386
X352161Y89386
X362161Y89386
X388224Y93205
X388066Y102299
X418066Y102299
X418224Y93205
X448027Y73087
X458027Y73087
X474169Y72299
X484169Y72299
X479680Y95409
X449680Y95409
X453617Y134465
X483617Y134465
X433381Y185252
X433381Y215252
X413263Y235528
X405763Y240528
X413263Y245528
X435547Y311512
X435547Y321512
X435153Y339268
X435153Y349268
X435822Y368283
X435822Y378283
X414641Y378520
X384641Y378520
X354523Y348717
X354523Y338717
X370507Y337457
X370822Y326787
X400822Y326787
X400507Y337457
X321452Y256551
X321176Y247575
X291176Y247575
X291452Y256551
X293302Y274346
X303302Y274346
X332161Y128205
X342161Y110173
X352161Y118992
X362161Y128205
X362161Y59386
X352161Y59386
X342161Y59386
X332161Y59386
X270704Y76748
X270704Y106748
T04
X273027Y217339
X283027Y217339
X293027Y217339
X295232Y293953
X295232Y303953
X295232Y313953
X392476Y310803
X392476Y300803
X392476Y290803
X426964Y168520
X436964Y168520
X446964Y168520
X443302Y146315
X433302Y146315
T05
X443184Y256039
X455389Y274937
X467200Y256039
T06
X465271Y321906
X465271Y331906
X465271Y341906
X330389Y337969
X330389Y347969
X330389Y327969
X331452Y299110
X331452Y289110
X331452Y279110
X224680Y316945
X204680Y316945
X468381Y181157
X468381Y171157
X468381Y161157
X388027Y41315
X378027Y41315
X368027Y41315
X358027Y41315
X348027Y41315
X338027Y41315
X338184Y22575
X348184Y22575
X358184Y22575
X328184Y22575
X299680Y27181
X289680Y27181
X279680Y27181
X269680Y27181
T07
X141649Y274307
X149523Y297929
X141649Y321551
X93617Y321551
X93617Y274307
T08
X124169Y341512
X164169Y341512
X267082Y309661
X267082Y269661
X409917Y302535
X422869Y294110
X462869Y294110
X409917Y342535
T09
X36491Y81709
X36491Y101394
X36491Y121079
X36491Y140764
X36491Y160449
X36491Y180134
X466846Y203913
X466846Y223598
T10
X244129Y267063
X224129Y267063
X204129Y267063
X184129Y267063
M30
