G75*
%MOIN*%
%OFA0B0*%
%FSLAX25Y25*%
%IPPOS*%
%LPD*%
%AMOC8*
5,1,8,0,0,1.08239X$1,22.5*
%
%ADD10R,0.05906X0.05118*%
%ADD11R,0.05900X0.07900*%
%ADD12R,0.15000X0.07900*%
%ADD13R,0.05906X0.05906*%
%ADD14R,0.03937X0.04331*%
%ADD15R,0.04724X0.11811*%
%ADD16R,0.11811X0.04724*%
D10*
X0295417Y0288390D03*
X0295417Y0295083D03*
X0308172Y0298311D03*
X0308172Y0291618D03*
X0308172Y0305004D03*
X0308133Y0314610D03*
X0308133Y0321303D03*
X0361204Y0270083D03*
X0361204Y0263390D03*
X0361204Y0256697D03*
X0361243Y0247287D03*
X0361243Y0240594D03*
X0373251Y0266579D03*
X0373251Y0273272D03*
X0425141Y0127642D03*
X0425141Y0120949D03*
X0425141Y0114256D03*
X0424944Y0103862D03*
X0424944Y0097169D03*
X0424944Y0090476D03*
D11*
X0387899Y0256459D03*
X0378899Y0256459D03*
X0369899Y0256459D03*
X0291603Y0311541D03*
X0282603Y0311541D03*
X0273603Y0311541D03*
D12*
X0282503Y0336341D03*
X0378999Y0231659D03*
D13*
X0446558Y0114138D03*
X0446558Y0103941D03*
X0460338Y0103941D03*
X0460338Y0114138D03*
D14*
X0438763Y0114138D03*
X0432070Y0114138D03*
X0432070Y0103941D03*
X0438763Y0103941D03*
D15*
X0369196Y0148902D03*
X0361322Y0148902D03*
X0353448Y0148902D03*
X0345574Y0148902D03*
X0337700Y0148902D03*
X0329826Y0148902D03*
X0321952Y0148902D03*
X0314078Y0148902D03*
X0314078Y0213469D03*
X0321952Y0213469D03*
X0329826Y0213469D03*
X0337700Y0213469D03*
X0345574Y0213469D03*
X0353448Y0213469D03*
X0361322Y0213469D03*
X0369196Y0213469D03*
D16*
X0305810Y0160319D03*
X0305810Y0168193D03*
X0305810Y0176067D03*
X0305810Y0183941D03*
X0305810Y0191815D03*
X0305810Y0199689D03*
M02*
