G75*
%MOIN*%
%OFA0B0*%
%FSLAX25Y25*%
%IPPOS*%
%LPD*%
%AMOC8*
5,1,8,0,0,1.08239X$1,22.5*
%
%ADD10R,0.05906X0.05118*%
%ADD11R,0.05118X0.05906*%
%ADD12R,0.05900X0.07900*%
%ADD13R,0.15000X0.07900*%
%ADD14R,0.05906X0.05906*%
%ADD15R,0.03937X0.04331*%
%ADD16R,0.04724X0.11811*%
%ADD17R,0.11811X0.04724*%
D10*
X0349169Y0264701D03*
X0349169Y0271394D03*
X0356216Y0290646D03*
X0356216Y0297339D03*
X0356216Y0304031D03*
X0378499Y0299740D03*
X0378499Y0293047D03*
X0310271Y0322811D03*
X0310271Y0329504D03*
X0310271Y0336197D03*
X0309838Y0348953D03*
X0309838Y0355646D03*
X0433539Y0133638D03*
X0433539Y0126945D03*
X0433539Y0120252D03*
X0433342Y0110646D03*
X0433342Y0103953D03*
X0433342Y0097260D03*
D11*
X0280547Y0330409D03*
X0273854Y0330409D03*
D12*
X0271765Y0345883D03*
X0280765Y0345883D03*
X0289765Y0345883D03*
X0373966Y0275841D03*
X0382966Y0275841D03*
X0391966Y0275841D03*
D13*
X0383066Y0251041D03*
X0280665Y0370683D03*
D14*
X0460074Y0120134D03*
X0473854Y0120134D03*
X0473854Y0109543D03*
X0460074Y0109543D03*
D15*
X0450310Y0109543D03*
X0443617Y0109543D03*
X0443617Y0119740D03*
X0450310Y0119740D03*
D16*
X0377987Y0149780D03*
X0370113Y0149780D03*
X0362239Y0149780D03*
X0354365Y0149780D03*
X0346491Y0149780D03*
X0338617Y0149780D03*
X0330743Y0149780D03*
X0322869Y0149780D03*
X0322869Y0214346D03*
X0330743Y0214346D03*
X0338617Y0214346D03*
X0346491Y0214346D03*
X0354365Y0214346D03*
X0362239Y0214346D03*
X0370113Y0214346D03*
X0377987Y0214346D03*
D17*
X0314602Y0161197D03*
X0314602Y0169071D03*
X0314602Y0176945D03*
X0314602Y0184819D03*
X0314602Y0192693D03*
X0314602Y0200567D03*
M02*
